<svg width="24" height="24" viewBox="0 0 24 24" fill="none" xmlns="http://www.w3.org/2000/svg">
<path d="M5.54363 10.517C4.85341 11.2024 4.18749 11.8673 3.52584 12.5258V11.4742C3.72716 11.6764 3.92788 11.8783 4.12842 12.0803C4.22303 12.1757 4.30043 12.2898 4.38127 12.3946C4.50673 12.5572 4.61372 12.7236 4.75477 12.8808C4.98363 13.1357 5.23164 13.3863 5.4761 13.6348C5.56838 13.7286 5.67347 13.8117 5.77269 13.8996C5.84909 13.9727 5.92547 14.0458 6.03923 14.1613C6.11252 14.2354 6.18744 14.3079 6.2639 14.3787C6.33375 14.4551 6.40363 14.5315 6.48612 14.6307C6.53139 14.688 6.56404 14.7226 6.61579 14.7782C6.71716 14.8788 6.79933 14.9584 6.88147 15.0378C6.90021 15.0586 6.91902 15.0793 6.96816 15.1324C7.03537 15.2007 7.07201 15.2366 7.11485 15.2837C7.15358 15.3147 7.18627 15.3346 7.21888 15.3544C7.26789 15.4019 7.3168 15.4495 7.3782 15.5208C7.43698 15.5939 7.4833 15.6431 7.54476 15.7089C7.60101 15.7586 7.64204 15.7917 7.68312 15.8247C7.71971 15.8567 7.75629 15.8887 7.80565 15.9461C7.89926 16.0474 7.9801 16.1233 8.0609 16.1992C8.09406 16.2308 8.12726 16.2623 8.16978 16.3135C8.21697 16.3722 8.25482 16.4112 8.29264 16.4502C8.35539 16.5058 8.41812 16.5614 8.49697 16.6442C8.59029 16.7498 8.66741 16.8281 8.76411 16.9271C8.92116 17.068 9.05867 17.1882 9.19617 17.3083C9.21318 17.33 9.23019 17.3517 9.27298 17.4066C9.53128 17.6827 9.82389 17.933 9.85098 18.1513C9.85167 18.156 9.87816 18.1807 9.89259 18.1962C9.8926 18.1962 9.89189 18.1987 9.89219 18.2098C9.89683 18.2508 9.88917 18.2905 9.90753 18.3093C10.0672 18.4724 10.0126 18.4833 9.95335 18.497C9.88347 18.4633 9.82795 18.4356 9.76307 18.4059C9.72188 18.3864 9.68184 18.3626 9.64377 18.3352C9.611 18.3214 9.59045 18.3209 9.57689 18.3368C9.65143 18.4274 9.72028 18.5016 9.78656 18.5763C9.8763 18.6776 9.96414 18.7792 10.0452 18.886C10.022 18.9314 10.0163 18.9837 9.98804 19.012C9.98804 19.012 9.98804 19.012 9.98803 19.012C9.98561 19.0144 9.98301 19.0166 9.98022 19.0187C9.95286 19.0389 9.89986 19.0529 9.83659 19.0122C9.54288 18.8232 9.37561 18.8037 9.46149 19.0276C9.53725 19.2252 9.56631 19.3389 9.24116 19.0647C9.21103 19.0393 9.1789 19.0412 9.14768 19.0304C9.1524 19.019 9.15712 19.0076 9.16184 18.9962C9.05852 18.8889 8.9552 18.7816 8.85188 18.6744C8.78649 18.6093 8.72111 18.5442 8.63965 18.4514C8.57385 18.3793 8.52424 18.3348 8.47463 18.2903C8.3462 18.1663 8.2178 18.0424 8.05981 17.8783C7.74706 17.5549 7.46381 17.2717 7.18062 16.9885C7.17325 16.9958 7.16589 17.003 7.15853 17.0103C7.21402 17.0726 7.26951 17.135 7.325 17.1973C7.30785 17.1938 7.29071 17.1902 7.27357 17.1866C7.19716 17.0769 7.124 16.968 7.04232 16.8572C7.02048 16.8275 6.97275 16.7923 6.93694 16.7597C6.91498 16.739 6.89303 16.7183 6.85724 16.6694C6.63965 16.4436 6.43589 16.246 6.23223 16.0485C6.19721 16.0162 6.1622 15.9839 6.11293 15.9252C5.92685 15.6719 5.93564 15.8058 5.85865 15.7683C5.77657 15.6893 5.69448 15.6103 5.60348 15.51C5.59828 15.4811 5.6019 15.4735 5.62274 15.4832C5.69025 15.5482 5.74056 15.5959 5.79077 15.6436C5.79251 15.6363 5.79425 15.629 5.79598 15.6218C5.73275 15.5704 5.66951 15.5191 5.58775 15.4487C5.31653 15.1773 5.06391 14.925 4.81074 14.6683C4.8086 14.6624 4.80564 14.6566 4.80194 14.6512C4.80557 14.6586 4.80918 14.6661 4.80492 14.6785C4.79744 14.684 4.79037 14.6899 4.7838 14.6964C4.76317 14.6775 4.74252 14.6586 4.70868 14.6102C4.42664 14.2632 4.14705 13.975 3.8297 13.7911C3.7303 13.6953 3.63097 13.5995 3.50135 13.4635C3.17326 13.133 2.84684 12.8048 2.52168 12.4783L2.04883 11.9279L2.52168 11.5217C3.59 10.4578 4.64023 9.40761 5.69045 8.35739C5.68939 8.35575 5.68834 8.35411 5.68728 8.35247C5.21752 8.82223 4.74776 9.29199 4.278 9.76175C4.27237 9.75513 4.26673 9.74852 4.26109 9.7419C4.33363 9.66706 4.40547 9.59139 4.47905 9.51758C4.86728 9.12843 5.25736 8.74103 5.64333 8.34993C5.71628 8.27598 5.77353 8.18831 5.83811 8.10701C5.94739 7.99428 6.05673 7.88154 6.20555 7.74046C6.41826 7.5332 6.59151 7.35427 6.76467 7.17536C6.81498 7.12398 6.86525 7.07261 6.94969 6.99768C6.99997 6.96219 7.01786 6.94643 7.03184 6.93881C7.24098 6.82397 7.43748 6.69544 7.62013 6.41812C7.6521 6.36959 7.77958 6.28511 7.86244 6.22126C7.92765 6.171 7.99962 6.13328 8.05406 6.07793C8.09108 6.04015 8.103 5.9815 8.12489 5.93508C8.39481 5.65712 8.66473 5.37916 8.93466 5.1012C8.93466 5.1012 8.9432 5.09145 8.93636 5.10915C8.7592 5.31169 8.58887 5.49651 8.41861 5.68134C8.42608 5.68517 8.43356 5.689 8.44103 5.69283C8.75918 5.37468 9.07733 5.05653 9.39548 4.73838C9.39548 4.73838 9.3909 4.74859 9.39025 4.75484C9.41974 4.75632 9.44977 4.75163 9.48689 4.75246C9.54447 4.76403 9.5951 4.76991 9.64565 4.77586C9.64601 4.776 9.65483 4.7798 9.65393 4.79782C9.76361 4.92679 9.8742 5.03732 9.99084 5.15396C9.94585 5.17991 9.90087 5.20585 9.85588 5.2318C9.84107 5.25428 9.82634 5.27687 9.81162 5.29935C9.89257 5.27373 9.97141 5.25136 10.0557 5.22061C10.0858 5.20966 10.1554 5.15299 10.1613 5.16129C10.1765 5.18287 10.1926 5.21866 10.1621 5.26695C10.0315 5.4735 10.0232 5.50957 10.1484 5.51969C10.1415 5.53999 10.1362 5.55244 10.1116 5.58315C9.97358 5.7577 9.85397 5.91444 9.72568 6.08275C9.8109 6.01937 9.89612 5.95599 9.98134 5.8926C9.98092 5.89338 9.97093 5.9117 9.94252 5.93524C9.81862 6.07233 9.72377 6.18524 9.62886 6.29823C9.60871 6.32007 9.58856 6.3419 9.54574 6.37215C9.45657 6.42528 9.38291 6.46155 9.3261 6.51745C9.28908 6.55393 9.27668 6.61903 9.2434 6.68475C9.23068 6.7101 9.22758 6.722 9.22456 6.73398C9.10001 6.86482 8.97542 6.9957 8.8197 7.15157C8.76973 7.20149 8.72198 7.25354 8.67667 7.30747C8.64474 7.34094 8.61287 7.37433 8.54696 7.43763C8.47898 7.51244 8.44497 7.55742 8.41091 7.60236C8.34018 7.67896 8.26773 7.75403 8.19361 7.82744C7.74848 8.26782 7.34475 8.67024 6.9434 9.07489C6.87293 9.1459 6.81227 9.22612 6.74721 9.30214C6.35946 9.69519 5.97174 10.0882 5.54363 10.517ZM7.00738 7.02256C7.00155 7.02258 6.99571 7.02261 6.98987 7.02263C6.65787 7.35463 6.32587 7.68663 5.99387 8.01863C6.00067 8.02361 6.00748 8.02858 6.01428 8.03356C6.24778 7.80006 6.48124 7.56657 6.75532 7.29364C6.83934 7.20328 6.92336 7.11292 7.00738 7.02256ZM3.13287 12.9957C3.0917 12.9607 3.05063 12.9255 3.00955 12.8905C3.00764 12.8967 3.00572 12.9028 3.00381 12.909C3.29198 13.1971 3.58014 13.4853 3.86831 13.7735C3.87602 13.767 3.88373 13.7606 3.89144 13.7541C3.65229 13.515 3.41318 13.2758 3.13287 12.9957ZM5.22456 14.985C5.15816 14.9402 5.09172 14.8954 5.0568 14.886C5.11455 14.9389 5.17231 14.9919 5.23006 15.0449C5.22823 15.0249 5.22639 15.005 5.22456 14.985ZM4.42084 14.246C4.50133 14.3265 4.58181 14.407 4.6623 14.4875C4.66834 14.4801 4.67439 14.4727 4.68043 14.4653C4.61446 14.3948 4.5478 14.3249 4.48047 14.2556C4.46059 14.2524 4.44072 14.2492 4.42084 14.246ZM9.72915 5.03524C9.72473 5.01615 9.71703 4.9987 9.70641 4.98349C9.6823 4.99595 9.6582 5.0084 9.63409 5.02085C9.64885 5.04273 9.6636 5.06461 9.67835 5.08649C9.69529 5.06941 9.71222 5.05233 9.72915 5.03524Z" fill="#0A0A0A"/>
<path d="M9.76766 11.25C10.9864 11.2545 12.1534 11.2543 13.3202 11.2589C13.4492 11.2594 13.5791 11.2854 13.705 11.3023C13.9005 11.3286 14.086 11.3706 14.2884 11.382C14.6167 11.4004 14.955 11.4022 15.2895 11.4051C15.4158 11.4062 15.5435 11.3906 15.6705 11.3827C15.772 11.3803 15.8734 11.378 16.029 11.3792C16.129 11.3798 16.229 11.3781 16.3289 11.374C16.4281 11.3787 16.5274 11.3833 16.6507 11.3952C16.7203 11.4036 16.7659 11.405 16.8388 11.4078C16.9759 11.4072 17.0856 11.4054 17.1952 11.4035C17.222 11.4049 17.2489 11.4062 17.3182 11.409C17.4102 11.4098 17.4594 11.4093 17.5204 11.4123C17.5678 11.4068 17.6034 11.3978 17.639 11.3888C17.7045 11.3877 17.77 11.3867 17.86 11.3937C17.9495 11.4039 18.0143 11.4059 18.1007 11.409C18.1726 11.4043 18.2229 11.3987 18.2731 11.393C18.3197 11.3897 18.3662 11.3865 18.4387 11.3922C18.5709 11.3976 18.6773 11.3942 18.7837 11.3907C18.8276 11.3896 18.8715 11.3884 18.9351 11.3945C19.0069 11.4027 19.0591 11.4035 19.1112 11.4043C19.1915 11.3992 19.2718 11.3942 19.3815 11.397C19.5165 11.4057 19.6219 11.4065 19.7547 11.4081C19.957 11.3967 20.1318 11.3845 20.3066 11.3722C20.3329 11.3755 20.3591 11.3788 20.4254 11.3874C20.7881 11.4 21.1565 11.3701 21.3229 11.5052C21.3266 11.5081 21.3614 11.5068 21.3817 11.5076C21.3817 11.5076 21.3829 11.5098 21.3906 11.5175C21.4216 11.5432 21.4434 11.5767 21.4685 11.577C21.6876 11.5794 21.658 11.6257 21.627 11.6773C21.5568 11.7029 21.5002 11.7225 21.4361 11.7474C21.3949 11.7628 21.3516 11.7743 21.3072 11.7818C21.2756 11.7952 21.2613 11.8094 21.2628 11.8302C21.3749 11.8416 21.472 11.8454 21.5677 11.8513C21.6973 11.8595 21.8259 11.8692 21.9533 11.8874C21.9683 11.936 22 11.977 22 12.0169C22 12.0169 22 12.0169 22 12.0169C22 12.0204 21.9998 12.0238 21.9993 12.0272C21.9944 12.0608 21.968 12.1082 21.8974 12.1242C21.5698 12.1982 21.4431 12.3027 21.6533 12.4003C21.8388 12.4865 21.9357 12.5463 21.529 12.5823C21.4913 12.5856 21.4708 12.6097 21.4423 12.6242C21.4377 12.6128 21.4332 12.6014 21.4286 12.59C21.2857 12.5872 21.1429 12.5844 21 12.5816C20.9114 12.5818 20.8229 12.582 20.7046 12.574C20.6111 12.5695 20.5472 12.5731 20.4833 12.5768C20.3121 12.5799 20.1408 12.5831 19.9223 12.5787C19.4906 12.5712 19.1062 12.5713 18.7219 12.5713C18.7218 12.5816 18.7218 12.5919 18.7217 12.6023C18.8017 12.6071 18.8816 12.612 18.9616 12.6168C18.9475 12.6264 18.9335 12.636 18.9194 12.6456C18.7931 12.6221 18.6696 12.5968 18.5389 12.5762C18.504 12.5707 18.4477 12.5795 18.4013 12.5818C18.3723 12.5827 18.3434 12.5836 18.2859 12.5743C17.9851 12.5685 17.7127 12.5729 17.4405 12.5772C17.3948 12.5791 17.3492 12.5811 17.2759 12.5744C16.9777 12.5269 17.0745 12.6153 16.9968 12.6432C16.8875 12.6454 16.7782 12.6475 16.6484 12.641C16.6253 12.6242 16.6226 12.6163 16.6433 12.6084C16.7332 12.6066 16.7997 12.6048 16.8662 12.603C16.8624 12.5967 16.8587 12.5903 16.8549 12.5839C16.7771 12.5923 16.6994 12.6007 16.5961 12.6087C16.2279 12.6086 15.8853 12.6089 15.5394 12.6064C15.5339 12.6037 15.528 12.6017 15.5217 12.6005C15.5293 12.6032 15.5368 12.6059 15.5424 12.6177C15.541 12.6269 15.5402 12.6361 15.5401 12.6453C15.5133 12.6465 15.4864 12.6477 15.4307 12.6375C15.0038 12.5915 14.6186 12.5855 14.2784 12.6798C14.1459 12.6823 14.0135 12.6849 13.8333 12.6803C11.9244 12.6733 10.0635 12.6733 8.20257 12.6733C8.20217 12.6752 8.20177 12.6771 8.20138 12.679C8.83891 12.679 9.47644 12.679 10.114 12.679C10.1133 12.6877 10.1126 12.6963 10.112 12.705C10.012 12.7066 9.91187 12.7093 9.81186 12.7095C9.28435 12.7101 8.75678 12.7082 8.22947 12.7119C8.1298 12.7126 8.03146 12.7341 7.93246 12.7459C7.78182 12.7484 7.63112 12.7508 7.4344 12.7453C7.14942 12.7414 6.91045 12.7454 6.67154 12.7495C6.60254 12.7503 6.53357 12.751 6.42542 12.7443C6.36722 12.7339 6.34439 12.7324 6.32973 12.7279C6.10988 12.6612 5.88934 12.6131 5.57721 12.6801C5.52258 12.6918 5.37875 12.6614 5.27921 12.6479C5.20084 12.6374 5.12641 12.6131 5.05191 12.6138C5.00115 12.6143 4.95326 12.6474 4.90692 12.6647C4.53514 12.6704 4.16336 12.6761 3.79158 12.6818C3.79158 12.6818 3.77917 12.6826 3.79582 12.6749C4.05347 12.657 4.29447 12.6467 4.53543 12.6364C4.53295 12.6284 4.53048 12.6204 4.528 12.6125C4.09623 12.6125 3.66446 12.6125 3.23269 12.6125C3.23269 12.6125 3.24272 12.6085 3.2474 12.6045C3.2284 12.5826 3.20483 12.5647 3.1802 12.5379C3.14899 12.489 3.11862 12.449 3.08836 12.4091C3.08821 12.4087 3.0848 12.3998 3.09763 12.3877C3.11073 12.2189 3.11069 12.0626 3.11069 11.8976C3.15882 11.9111 3.20695 11.9245 3.25508 11.938C3.2804 11.9326 3.30572 11.927 3.33096 11.9215C3.25864 11.8824 3.18997 11.8425 3.11188 11.8046C3.08406 11.7911 2.99839 11.782 3.00002 11.7719C3.0043 11.7459 3.01767 11.7092 3.07113 11.6966C3.29994 11.6429 3.33001 11.6232 3.25197 11.5276C3.27042 11.5181 3.28245 11.5131 3.31996 11.5087C3.53208 11.4829 3.7196 11.4567 3.92087 11.4284C3.82003 11.4129 3.71919 11.3975 3.61836 11.382C3.61917 11.3818 3.63838 11.3759 3.67363 11.3793C3.85073 11.37 3.99171 11.3572 4.13279 11.3444C4.16128 11.3433 4.18977 11.3421 4.23935 11.351C4.33591 11.3764 4.41051 11.4029 4.48699 11.4035C4.53686 11.4039 4.58945 11.3666 4.65663 11.3437C4.68246 11.3348 4.69264 11.3285 4.70282 11.3222C4.87612 11.3178 5.04947 11.3133 5.26092 11.3132C5.32869 11.3132 5.39642 11.3102 5.46376 11.3041C5.50814 11.303 5.55242 11.3019 5.64009 11.3038C5.73699 11.299 5.79059 11.2912 5.8442 11.2835C5.94417 11.2794 6.04428 11.2775 6.14439 11.278C6.74526 11.2814 7.2923 11.2823 7.83923 11.28C7.93523 11.2796 8.03083 11.2657 8.12656 11.258C8.65639 11.2543 9.18619 11.2505 9.76766 11.25ZM6.40316 12.6859C6.40713 12.69 6.41111 12.6942 6.41509 12.6983C6.86566 12.6983 7.31623 12.6983 7.7668 12.6983C7.76556 12.6899 7.76432 12.6816 7.76309 12.6733C7.44619 12.6733 7.12933 12.6733 6.75815 12.6725C6.63982 12.677 6.52149 12.6815 6.40316 12.6859ZM13.2658 12.6101C13.2141 12.6145 13.1624 12.6187 13.1108 12.6229C13.1136 12.6286 13.1165 12.6343 13.1194 12.64C13.5105 12.64 13.9015 12.64 14.2926 12.64C14.2935 12.63 14.2943 12.62 14.2952 12.61C13.9707 12.61 13.6461 12.61 13.2658 12.6101ZM16.035 12.5377C15.9596 12.553 15.8841 12.5683 15.854 12.5863C15.9292 12.5829 16.0043 12.5796 16.0794 12.5762C16.0646 12.5634 16.0498 12.5505 16.035 12.5377ZM14.9882 12.5835C15.0975 12.5835 15.2067 12.5835 15.3159 12.5835C15.315 12.574 15.3141 12.5645 15.3132 12.555C15.2206 12.5518 15.1279 12.5495 15.0352 12.5481C15.0196 12.5599 15.0039 12.5717 14.9882 12.5835ZM3.2077 12.1666C3.19774 12.1832 3.19113 12.201 3.18802 12.2193C3.21283 12.2275 3.23763 12.2358 3.26244 12.244C3.26728 12.2181 3.27211 12.1922 3.27695 12.1663C3.25387 12.1664 3.23079 12.1665 3.2077 12.1666Z" fill="#0A0A0A"/>
</svg>
