<svg width="24" height="24" viewBox="0 0 24 24" fill="none" xmlns="http://www.w3.org/2000/svg">
<path d="M18.4564 13.483C19.1466 12.7976 19.8125 12.1327 20.4742 11.4742V12.5258C20.2728 12.3236 20.0721 12.1217 19.8716 11.9197C19.777 11.8243 19.6996 11.7102 19.6187 11.6054C19.4933 11.4428 19.3863 11.2764 19.2452 11.1192C19.0164 10.8643 18.7684 10.6137 18.5239 10.3652C18.4316 10.2714 18.3265 10.1883 18.2273 10.1004C18.1509 10.0273 18.0745 9.9542 17.9608 9.83867C17.8875 9.76458 17.8126 9.69209 17.7361 9.62135C17.6662 9.5449 17.5964 9.46845 17.5139 9.36925C17.4686 9.31202 17.436 9.27742 17.3842 9.22177C17.2828 9.12116 17.2007 9.0416 17.1185 8.96215C17.0998 8.94141 17.081 8.92072 17.0318 8.8676C16.9646 8.79931 16.928 8.7634 16.8851 8.71634C16.8464 8.68528 16.8137 8.66544 16.7811 8.64556C16.7321 8.59808 16.6832 8.55048 16.6218 8.4792C16.563 8.40608 16.5167 8.3569 16.4552 8.29107C16.399 8.24142 16.358 8.20835 16.3169 8.17532C16.2803 8.14333 16.2437 8.11132 16.1943 8.05391C16.1007 7.95264 16.0199 7.87665 15.9391 7.80076C15.9059 7.76922 15.8727 7.73767 15.8302 7.68649C15.783 7.6278 15.7452 7.58875 15.7074 7.54978C15.6446 7.49424 15.5819 7.43862 15.503 7.35578C15.4097 7.2502 15.3326 7.17192 15.2359 7.07292C15.0788 6.93197 14.9413 6.81179 14.8038 6.69169C14.7868 6.67 14.7698 6.6483 14.727 6.5934C14.4687 6.31731 14.1761 6.06696 14.149 5.84874C14.1483 5.84401 14.1218 5.81926 14.1074 5.80383C14.1074 5.80383 14.1081 5.80132 14.1078 5.79024C14.1032 5.74918 14.1108 5.70949 14.0925 5.69074C13.9328 5.52762 13.9874 5.51666 14.0466 5.50297C14.1165 5.53667 14.172 5.56443 14.2369 5.59413C14.2781 5.61363 14.3182 5.63735 14.3562 5.66477C14.389 5.6786 14.4095 5.67909 14.4231 5.66322C14.3486 5.57258 14.2797 5.49839 14.2134 5.42368C14.1237 5.32244 14.0359 5.22079 13.9548 5.114C13.978 5.06861 13.9837 5.01627 14.012 4.98804C14.012 4.98804 14.012 4.98804 14.012 4.98803C14.0144 4.98561 14.017 4.98335 14.0198 4.9813C14.0471 4.96114 14.1001 4.94706 14.1634 4.98777C14.4571 5.17684 14.6244 5.19631 14.5385 4.97244C14.4628 4.77479 14.4337 4.66106 14.7588 4.93531C14.789 4.96074 14.8211 4.95881 14.8523 4.96956C14.8476 4.98099 14.8429 4.99241 14.8382 5.00384C14.9415 5.1111 15.0448 5.21836 15.1481 5.32563C15.2135 5.39072 15.2789 5.45583 15.3604 5.54864C15.4261 5.62073 15.4758 5.66522 15.5254 5.7097C15.6538 5.83367 15.7822 5.95762 15.9402 6.12174C16.2529 6.44507 16.5362 6.7283 16.8194 7.01149C16.8267 7.00423 16.8341 6.99697 16.8415 6.9897C16.786 6.92735 16.7305 6.865 16.675 6.80265C16.6921 6.80624 16.7093 6.80983 16.7264 6.81343C16.8028 6.9231 16.876 7.03202 16.9577 7.14283C16.9795 7.17249 17.0273 7.20768 17.0631 7.24027C17.085 7.26101 17.107 7.2817 17.1428 7.3306C17.3604 7.55639 17.5641 7.75396 17.7678 7.95149C17.8028 7.98376 17.8378 8.01606 17.8871 8.07476C18.0731 8.32806 18.0644 8.19421 18.1414 8.23172C18.2234 8.31072 18.3055 8.38975 18.3965 8.49003C18.4017 8.51891 18.3981 8.52654 18.3773 8.51681C18.3097 8.45183 18.2594 8.4041 18.2092 8.35642C18.2075 8.36369 18.2058 8.37096 18.204 8.37823C18.2672 8.42958 18.3305 8.48093 18.4122 8.55135C18.6835 8.82273 18.9361 9.07504 19.1893 9.33166C19.1914 9.33758 19.1944 9.34338 19.1981 9.34884C19.1944 9.34138 19.1908 9.3339 19.1951 9.32145C19.2026 9.31602 19.2096 9.31008 19.2162 9.30365C19.2368 9.32251 19.2575 9.34145 19.2913 9.38977C19.5734 9.73682 19.853 10.025 20.1703 10.2089C20.2697 10.3047 20.369 10.4005 20.4987 10.5365C20.8267 10.867 21.1532 11.1952 21.4783 11.5217L21.9512 12.0721L21.4783 12.4783C20.41 13.5422 19.3598 14.5924 18.3096 15.6426C18.3106 15.6442 18.3117 15.6459 18.3127 15.6475C18.7825 15.1778 19.2522 14.708 19.722 14.2383C19.7276 14.2449 19.7333 14.2515 19.7389 14.2581C19.6664 14.3329 19.5945 14.4086 19.521 14.4824C19.1327 14.8716 18.7426 15.259 18.3567 15.6501C18.2837 15.724 18.2265 15.8117 18.1619 15.893C18.0526 16.0057 17.9433 16.1185 17.7944 16.2595C17.5817 16.4668 17.4085 16.6457 17.2353 16.8246C17.185 16.876 17.1348 16.9274 17.0503 17.0023C17 17.0378 16.9821 17.0536 16.9682 17.0612C16.759 17.176 16.5625 17.3046 16.3799 17.5819C16.3479 17.6304 16.2204 17.7149 16.1376 17.7787C16.0723 17.829 16.0004 17.8667 15.9459 17.9221C15.9089 17.9599 15.897 18.0185 15.8751 18.0649C15.6052 18.3429 15.3353 18.6208 15.0653 18.8988C15.0653 18.8988 15.0568 18.9085 15.0636 18.8908C15.2408 18.6883 15.4111 18.5035 15.5814 18.3187C15.5739 18.3148 15.5664 18.311 15.559 18.3072C15.2408 18.6253 14.9227 18.9435 14.6045 19.2616C14.6045 19.2616 14.6091 19.2514 14.6097 19.2452C14.5803 19.2437 14.5502 19.2484 14.5131 19.2475C14.4555 19.236 14.4049 19.2301 14.3544 19.2241C14.354 19.224 14.3452 19.2202 14.3461 19.2022C14.2364 19.0732 14.1258 18.9627 14.0092 18.846C14.0541 18.8201 14.0991 18.7941 14.1441 18.7682C14.1589 18.7457 14.1737 18.7231 14.1884 18.7007C14.1074 18.7263 14.0286 18.7486 13.9443 18.7794C13.9142 18.7903 13.8446 18.847 13.8387 18.8387C13.8235 18.8171 13.8074 18.7813 13.8379 18.7331C13.9685 18.5265 13.9768 18.4904 13.8516 18.4803C13.8585 18.46 13.8638 18.4476 13.8884 18.4169C14.0264 18.2423 14.146 18.0856 14.2743 17.9173C14.1891 17.9806 14.1039 18.044 14.0187 18.1074C14.0191 18.1066 14.0291 18.0883 14.0575 18.0648C14.1814 17.9277 14.2762 17.8148 14.3711 17.7018C14.3913 17.6799 14.4114 17.6581 14.4543 17.6279C14.5434 17.5747 14.6171 17.5384 14.6739 17.4826C14.7109 17.4461 14.7233 17.381 14.7566 17.3153C14.7693 17.2899 14.7724 17.278 14.7754 17.266C14.9 17.1352 15.0246 17.0043 15.1803 16.8484C15.2303 16.7985 15.278 16.7465 15.3233 16.6925C15.3553 16.6591 15.3871 16.6257 15.453 16.5624C15.521 16.4876 15.555 16.4426 15.5891 16.3976C15.6598 16.321 15.7323 16.246 15.8064 16.1726C16.2515 15.7322 16.6553 15.3298 17.0566 14.9251C17.1271 14.8541 17.1877 14.7739 17.2528 14.6979C17.6405 14.3048 18.0283 13.9118 18.4564 13.483ZM16.9926 16.9774C16.9985 16.9774 17.0043 16.9774 17.0101 16.9774C17.3421 16.6454 17.6741 16.3134 18.0061 15.9814C17.9993 15.9764 17.9925 15.9714 17.9857 15.9664C17.7522 16.1999 17.5188 16.4334 17.2447 16.7064C17.1607 16.7967 17.0766 16.8871 16.9926 16.9774ZM20.8671 11.0043C20.9083 11.0393 20.9494 11.0745 20.9904 11.1095C20.9924 11.1033 20.9943 11.0972 20.9962 11.091C20.708 10.8029 20.4199 10.5147 20.1317 10.2265C20.124 10.233 20.1163 10.2394 20.1086 10.2459C20.3477 10.485 20.5868 10.7242 20.8671 11.0043ZM18.7754 9.01501C18.8418 9.0598 18.9083 9.10458 18.9432 9.11405C18.8854 9.06106 18.8277 9.00807 18.7699 8.95509C18.7718 8.97506 18.7736 8.99504 18.7754 9.01501ZM19.5792 9.75397C19.4987 9.67349 19.4182 9.593 19.3377 9.51252C19.3317 9.5199 19.3256 9.52728 19.3196 9.53466C19.3855 9.60519 19.4522 9.67509 19.5195 9.74436C19.5394 9.74757 19.5593 9.75077 19.5792 9.75397ZM14.2708 18.9648C14.2753 18.9839 14.283 19.0013 14.2936 19.0165C14.3177 19.0041 14.3418 18.9916 14.3659 18.9792C14.3512 18.9573 14.3364 18.9354 14.3216 18.9135C14.3047 18.9306 14.2878 18.9477 14.2708 18.9648Z" fill="#0A0A0A"/>
<path d="M14.2323 12.75C13.0136 12.7455 11.8466 12.7457 10.6798 12.7411C10.5508 12.7406 10.4209 12.7146 10.295 12.6977C10.0995 12.6714 9.91397 12.6294 9.71161 12.618C9.38333 12.5996 9.04498 12.5978 8.71045 12.5949C8.58419 12.5938 8.4565 12.6094 8.32949 12.6173C8.22804 12.6197 8.12664 12.622 7.97105 12.6208C7.87103 12.6202 7.77101 12.6219 7.67112 12.626C7.57185 12.6213 7.47256 12.6167 7.34927 12.6048C7.27971 12.5964 7.23408 12.595 7.1612 12.5922C7.02414 12.5928 6.9144 12.5946 6.80475 12.5965C6.77796 12.5951 6.75115 12.5938 6.68176 12.591C6.58981 12.5902 6.54059 12.5907 6.47958 12.5877C6.43223 12.5932 6.39658 12.6022 6.36096 12.6112C6.29549 12.6123 6.22999 12.6133 6.13996 12.6063C6.05047 12.5961 5.98566 12.5941 5.89928 12.591C5.82743 12.5957 5.77713 12.6013 5.72685 12.607C5.68031 12.6103 5.63377 12.6135 5.56132 12.6078C5.42908 12.6024 5.32266 12.6058 5.21633 12.6093C5.17243 12.6104 5.1285 12.6116 5.06492 12.6055C4.99306 12.5973 4.94088 12.5965 4.88878 12.5957C4.8085 12.6008 4.7282 12.6058 4.61847 12.603C4.4835 12.5943 4.37806 12.5935 4.24526 12.5919C4.04305 12.6033 3.86818 12.6155 3.69339 12.6278C3.66713 12.6245 3.64087 12.6212 3.57457 12.6126C3.21194 12.6 2.84351 12.6299 2.67705 12.4948C2.67337 12.4919 2.6386 12.4932 2.61834 12.4924C2.61834 12.4924 2.61711 12.4902 2.6094 12.4825C2.57838 12.4568 2.55664 12.4233 2.53147 12.423C2.31243 12.4206 2.34201 12.3743 2.37296 12.3227C2.44324 12.2971 2.49976 12.2775 2.56394 12.2526C2.60511 12.2372 2.64838 12.2257 2.69283 12.2182C2.72445 12.2048 2.73872 12.1906 2.73716 12.1698C2.62506 12.1584 2.52801 12.1546 2.43233 12.1487C2.30274 12.1405 2.17415 12.1308 2.04666 12.1126C2.03166 12.064 2 12.023 2 11.9831C2 11.9831 2 11.9831 2 11.9831C2 11.9796 2.00023 11.9762 2.00073 11.9728C2.00562 11.9392 2.03203 11.8918 2.10259 11.8758C2.43019 11.8018 2.5569 11.6973 2.34671 11.5997C2.16119 11.5135 2.0643 11.4537 2.47103 11.4177C2.50873 11.4144 2.52923 11.3903 2.55771 11.3758C2.56226 11.3872 2.56681 11.3986 2.57136 11.41C2.71425 11.4128 2.85715 11.4156 3.00004 11.4184C3.08858 11.4182 3.17713 11.418 3.29539 11.426C3.38895 11.4305 3.45281 11.4269 3.51666 11.4232C3.68793 11.4201 3.85917 11.4169 4.07774 11.4213C4.50937 11.4288 4.89376 11.4287 5.27809 11.4287C5.27816 11.4184 5.27823 11.4081 5.27829 11.3977C5.19833 11.3929 5.11837 11.388 5.03841 11.3832C5.05248 11.3736 5.06655 11.364 5.08062 11.3544C5.20689 11.3779 5.33044 11.4032 5.46106 11.4238C5.496 11.4293 5.55228 11.4205 5.59869 11.4182C5.62766 11.4173 5.6566 11.4164 5.71406 11.4257C6.01493 11.4315 6.28726 11.4271 6.5595 11.4228C6.60515 11.4209 6.65083 11.4189 6.7241 11.4256C7.02225 11.4731 6.92546 11.3847 7.00315 11.3568C7.11246 11.3546 7.22179 11.3525 7.35159 11.359C7.37472 11.3758 7.37744 11.3837 7.35669 11.3916C7.26678 11.3934 7.20026 11.3952 7.13383 11.397C7.13759 11.4033 7.14134 11.4097 7.1451 11.4161C7.22285 11.4077 7.30061 11.3993 7.40387 11.3913C7.77206 11.3914 8.11469 11.3911 8.46063 11.3936C8.46609 11.3963 8.47204 11.3983 8.47825 11.3995C8.47073 11.3968 8.46321 11.3941 8.45764 11.3823C8.45904 11.3731 8.4598 11.3639 8.4599 11.3547C8.48669 11.3535 8.51356 11.3523 8.5693 11.3625C8.9962 11.4085 9.38145 11.4145 9.72162 11.3202C9.85407 11.3177 9.98645 11.3151 10.1667 11.3197C12.0756 11.3267 13.9365 11.3267 15.7974 11.3267C15.7978 11.3248 15.7982 11.3229 15.7986 11.321C15.1611 11.321 14.5236 11.321 13.886 11.321C13.8867 11.3123 13.8874 11.3037 13.888 11.295C13.988 11.2934 14.0881 11.2907 14.1881 11.2905C14.7156 11.2899 15.2432 11.2918 15.7705 11.2881C15.8702 11.2874 15.9685 11.2659 16.0675 11.2541C16.2182 11.2516 16.3689 11.2492 16.5656 11.2547C16.8506 11.2586 17.0896 11.2546 17.3285 11.2505C17.3975 11.2497 17.4664 11.249 17.5746 11.2557C17.6328 11.2661 17.6556 11.2676 17.6703 11.2721C17.8901 11.3388 18.1107 11.3869 18.4228 11.3199C18.4774 11.3082 18.6212 11.3386 18.7208 11.3521C18.7992 11.3626 18.8736 11.3869 18.9481 11.3862C18.9988 11.3857 19.0467 11.3526 19.0931 11.3353C19.4649 11.3296 19.8366 11.3239 20.2084 11.3182C20.2084 11.3182 20.2208 11.3174 20.2042 11.3251C19.9465 11.343 19.7055 11.3533 19.4646 11.3636C19.467 11.3716 19.4695 11.3796 19.472 11.3875C19.9038 11.3875 20.3355 11.3875 20.7673 11.3875C20.7673 11.3875 20.7573 11.3915 20.7526 11.3955C20.7716 11.4174 20.7952 11.4353 20.8198 11.4621C20.851 11.511 20.8814 11.551 20.9116 11.5909C20.9118 11.5913 20.9152 11.6002 20.9024 11.6123C20.8893 11.7811 20.8893 11.9374 20.8893 12.1024C20.8412 12.0889 20.793 12.0755 20.7449 12.062C20.7196 12.0674 20.6943 12.073 20.669 12.0785C20.7414 12.1176 20.81 12.1575 20.8881 12.1954C20.9159 12.2089 21.0016 12.218 21 12.2281C20.9957 12.2541 20.9823 12.2908 20.9289 12.3034C20.7001 12.3571 20.67 12.3768 20.748 12.4724C20.7296 12.4819 20.7176 12.4869 20.68 12.4913C20.4679 12.5171 20.2804 12.5433 20.0791 12.5716C20.18 12.5871 20.2808 12.6025 20.3816 12.618C20.3808 12.6182 20.3616 12.6241 20.3264 12.6207C20.1493 12.63 20.0083 12.6428 19.8672 12.6556C19.8387 12.6567 19.8102 12.6579 19.7607 12.649C19.6641 12.6236 19.5895 12.5971 19.513 12.5965C19.4631 12.5961 19.4105 12.6334 19.3434 12.6563C19.3175 12.6652 19.3074 12.6715 19.2972 12.6778C19.1239 12.6822 18.9505 12.6867 18.7391 12.6868C18.6713 12.6868 18.6036 12.6898 18.5362 12.6959C18.4919 12.697 18.4476 12.6981 18.3599 12.6962C18.263 12.701 18.2094 12.7088 18.1558 12.7165C18.0558 12.7206 17.9557 12.7225 17.8556 12.722C17.2547 12.7186 16.7077 12.7177 16.1608 12.72C16.0648 12.7204 15.9692 12.7343 15.8734 12.742C15.3436 12.7457 14.8138 12.7495 14.2323 12.75ZM17.5968 11.3141C17.5929 11.31 17.5889 11.3058 17.5849 11.3017C17.1343 11.3017 16.6838 11.3017 16.2332 11.3017C16.2344 11.3101 16.2357 11.3184 16.2369 11.3267C16.5538 11.3267 16.8707 11.3267 17.2418 11.3275C17.3602 11.323 17.4785 11.3185 17.5968 11.3141ZM10.7342 11.3899C10.7859 11.3855 10.8376 11.3813 10.8892 11.3771C10.8864 11.3714 10.8835 11.3657 10.8806 11.36C10.4895 11.36 10.0985 11.36 9.70737 11.36C9.70651 11.37 9.70565 11.38 9.70479 11.39C10.0293 11.39 10.3539 11.39 10.7342 11.3899ZM7.96495 11.4623C8.0404 11.447 8.11587 11.4317 8.14599 11.4137C8.07085 11.4171 7.9957 11.4204 7.92055 11.4238C7.93535 11.4366 7.95015 11.4495 7.96495 11.4623ZM9.01177 11.4165C8.90254 11.4165 8.79331 11.4165 8.68408 11.4165C8.68498 11.426 8.68589 11.4355 8.6868 11.445C8.77942 11.4482 8.87209 11.4505 8.96479 11.4519C8.98045 11.4401 8.99611 11.4283 9.01177 11.4165ZM20.7923 11.8334C20.8023 11.8168 20.8089 11.799 20.812 11.7807C20.7872 11.7725 20.7624 11.7642 20.7376 11.756C20.7327 11.7819 20.7279 11.8078 20.723 11.8337C20.7461 11.8336 20.7692 11.8335 20.7923 11.8334Z" fill="#0A0A0A"/>
</svg>
